%TF.GenerationSoftware,KiCad,Pcbnew,10.0.1*%
%TF.CreationDate,2026-05-04T10:14:32+01:00*%
%TF.ProjectId,ZX IF2 Cartridge,5a582049-4632-4204-9361-727472696467,1.0*%
%TF.SameCoordinates,Original*%
%TF.FileFunction,Soldermask,Bot*%
%TF.FilePolarity,Negative*%
%FSLAX46Y46*%
G04 Gerber Fmt 4.6, Leading zero omitted, Abs format (unit mm)*
G04 Created by KiCad (PCBNEW 10.0.1) date 2026-05-04 10:14:32*
%MOMM*%
%LPD*%
G01*
G04 APERTURE LIST*
G04 Aperture macros list*
%AMRoundRect*
0 Rectangle with rounded corners*
0 $1 Rounding radius*
0 $2 $3 $4 $5 $6 $7 $8 $9 X,Y pos of 4 corners*
0 Add a 4 corners polygon primitive as box body*
4,1,4,$2,$3,$4,$5,$6,$7,$8,$9,$2,$3,0*
0 Add four circle primitives for the rounded corners*
1,1,$1+$1,$2,$3*
1,1,$1+$1,$4,$5*
1,1,$1+$1,$6,$7*
1,1,$1+$1,$8,$9*
0 Add four rect primitives between the rounded corners*
20,1,$1+$1,$2,$3,$4,$5,0*
20,1,$1+$1,$4,$5,$6,$7,0*
20,1,$1+$1,$6,$7,$8,$9,0*
20,1,$1+$1,$8,$9,$2,$3,0*%
G04 Aperture macros list end*
%ADD10R,1.524000X7.620000*%
%ADD11RoundRect,0.250000X0.550000X0.550000X-0.550000X0.550000X-0.550000X-0.550000X0.550000X-0.550000X0*%
%ADD12C,1.600000*%
%ADD13C,1.400000*%
%ADD14RoundRect,0.250000X-0.550000X0.550000X-0.550000X-0.550000X0.550000X-0.550000X0.550000X0.550000X0*%
%ADD15C,1.507998*%
G04 APERTURE END LIST*
D10*
%TO.C,J1*%
X130840000Y-124710000D03*
X133380000Y-124710000D03*
X135920000Y-124710000D03*
X138460000Y-124710000D03*
X141000000Y-124710000D03*
X143540000Y-124710000D03*
X146080000Y-124710000D03*
X148620000Y-124710000D03*
X151160000Y-124710000D03*
X153700000Y-124710000D03*
X158780000Y-124710000D03*
X161320000Y-124710000D03*
X163860000Y-124710000D03*
X166400000Y-124710000D03*
%TD*%
D11*
%TO.C,U2*%
X171460000Y-99940000D03*
D12*
X171460000Y-97400000D03*
X171460000Y-94860000D03*
X171460000Y-92320000D03*
X171460000Y-89780000D03*
X171460000Y-87240000D03*
X171460000Y-84700000D03*
X163840000Y-84700000D03*
X163840000Y-87240000D03*
X163840000Y-89780000D03*
X163840000Y-92320000D03*
X163840000Y-94860000D03*
X163840000Y-97400000D03*
X163840000Y-99940000D03*
%TD*%
D13*
%TO.C,R1*%
X140980000Y-83400000D03*
X135900000Y-83400000D03*
%TD*%
D14*
%TO.C,U1*%
X159900000Y-89620000D03*
D12*
X157360000Y-89620000D03*
X154820000Y-89620000D03*
X152280000Y-89620000D03*
X149740000Y-89620000D03*
X147200000Y-89620000D03*
X144660000Y-89620000D03*
X142120000Y-89620000D03*
X139580000Y-89620000D03*
X137040000Y-89620000D03*
X134500000Y-89620000D03*
X131960000Y-89620000D03*
X129420000Y-89620000D03*
X126880000Y-89620000D03*
X126880000Y-104860000D03*
X129420000Y-104860000D03*
X131960000Y-104860000D03*
X134500000Y-104860000D03*
X137040000Y-104860000D03*
X139580000Y-104860000D03*
X142120000Y-104860000D03*
X144660000Y-104860000D03*
X147200000Y-104860000D03*
X149740000Y-104860000D03*
X152280000Y-104860000D03*
X154820000Y-104860000D03*
X157360000Y-104860000D03*
X159900000Y-104860000D03*
%TD*%
%TO.C,C1*%
X149470000Y-84230000D03*
X156970000Y-84230000D03*
%TD*%
D13*
%TO.C,R2*%
X141040000Y-85810000D03*
X135960000Y-85810000D03*
%TD*%
D15*
%TO.C,SW1*%
X125380000Y-83460000D03*
X125380000Y-86000000D03*
X133000000Y-86000000D03*
X133000000Y-83460000D03*
%TD*%
M02*
