%TF.GenerationSoftware,KiCad,Pcbnew,10.0.1*%
%TF.CreationDate,2026-05-04T10:14:32+01:00*%
%TF.ProjectId,ZX IF2 Cartridge,5a582049-4632-4204-9361-727472696467,1.0*%
%TF.SameCoordinates,Original*%
%TF.FileFunction,Other,User*%
%FSLAX46Y46*%
G04 Gerber Fmt 4.6, Leading zero omitted, Abs format (unit mm)*
G04 Created by KiCad (PCBNEW 10.0.1) date 2026-05-04 10:14:32*
%MOMM*%
%LPD*%
G01*
G04 APERTURE LIST*
%ADD10C,0.050000*%
%ADD11C,0.152400*%
G04 APERTURE END LIST*
%TO.C,U2*%
D10*
X162790000Y-83170000D02*
X172520000Y-83170000D01*
X172520000Y-101470000D01*
X162790000Y-101470000D01*
X162790000Y-83170000D01*
%TO.C,R1*%
X134950000Y-82350000D02*
X141930000Y-82350000D01*
X141930000Y-84450000D01*
X134950000Y-84450000D01*
X134950000Y-82350000D01*
%TO.C,U1*%
X125350000Y-88570000D02*
X161430000Y-88570000D01*
X161430000Y-105910000D01*
X125350000Y-105910000D01*
X125350000Y-88570000D01*
%TO.C,C1*%
X148420000Y-82430000D02*
X158020000Y-82430000D01*
X158020000Y-86030000D01*
X148420000Y-86030000D01*
X148420000Y-82430000D01*
%TO.C,R2*%
X135010000Y-84760000D02*
X141990000Y-84760000D01*
X141990000Y-86860000D01*
X135010000Y-86860000D01*
X135010000Y-84760000D01*
%TO.C,SW1*%
D11*
X122286002Y-82556001D02*
X122286002Y-86903999D01*
X122286002Y-86903999D02*
X123985998Y-86903999D01*
X123985998Y-82556001D02*
X122286002Y-82556001D01*
X123985998Y-86903999D02*
X123986000Y-88303966D01*
X123986000Y-81155966D02*
X123985998Y-82556001D01*
X123986000Y-88303966D02*
X134394000Y-88303966D01*
X134394000Y-81155966D02*
X123986000Y-81155966D01*
X134394000Y-88303966D02*
X134394000Y-81155966D01*
%TD*%
M02*
