M48
; DRILL file KiCad 10.0.1 date 2026-05-04T10:14:39
; FORMAT={-:-/ absolute / metric / decimal}
; #@! TF.CreationDate,2026-05-04T10:14:39+01:00
; #@! TF.GenerationSoftware,Kicad,Pcbnew,10.0.1
; #@! TF.FileFunction,Plated,1,2,PTH
FMAT,2
METRIC
; #@! TA.AperFunction,Plated,PTH,ViaDrill
T1C0.300
; #@! TA.AperFunction,Plated,PTH,ComponentDrill
T2C0.700
; #@! TA.AperFunction,Plated,PTH,ComponentDrill
T3C0.800
; #@! TA.AperFunction,Plated,PTH,ComponentDrill
T4C0.991
%
G90
G05
T1
X130.38Y-117.35
X132.36Y-97.7
X133.96Y-119.67
X134.52Y-96.43
X136.04Y-116.73
X137.09Y-119.29
X137.44Y-108.35
X137.56Y-96.3
X139.63Y-119.07
X139.656Y-99.339
X143.42Y-87.29
X143.802Y-102.171
X144.559Y-119.611
X144.854Y-91.386
X146.11Y-118.08
X149.22Y-106.35
X150.25Y-109.62
X150.851Y-98.581
X151.097Y-119.152
X151.14Y-93.76
X152.33Y-119.29
X153.194Y-116.331
X156.34Y-95.67
X156.46Y-100.73
X156.6Y-109.37
X159.74Y-100.87
X159.91Y-96.41
X159.95Y-107.835
X159.95Y-119.29
X164.225Y-113.499
X164.59Y-107.08
X166.3Y-119.163
X166.958Y-118.305
T2
X135.9Y-83.4
X135.96Y-85.81
X140.98Y-83.4
X141.04Y-85.81
T3
X126.88Y-89.62
X126.88Y-104.86
X129.42Y-89.62
X129.42Y-104.86
X131.96Y-89.62
X131.96Y-104.86
X134.5Y-89.62
X134.5Y-104.86
X137.04Y-89.62
X137.04Y-104.86
X139.58Y-89.62
X139.58Y-104.86
X142.12Y-89.62
X142.12Y-104.86
X144.66Y-89.62
X144.66Y-104.86
X147.2Y-89.62
X147.2Y-104.86
X149.47Y-84.23
X149.74Y-89.62
X149.74Y-104.86
X152.28Y-89.62
X152.28Y-104.86
X154.82Y-89.62
X154.82Y-104.86
X156.97Y-84.23
X157.36Y-89.62
X157.36Y-104.86
X159.9Y-89.62
X159.9Y-104.86
X163.84Y-84.7
X163.84Y-87.24
X163.84Y-89.78
X163.84Y-92.32
X163.84Y-94.86
X163.84Y-97.4
X163.84Y-99.94
X171.46Y-84.7
X171.46Y-87.24
X171.46Y-89.78
X171.46Y-92.32
X171.46Y-94.86
X171.46Y-97.4
X171.46Y-99.94
T4
X125.38Y-83.46
X125.38Y-86.0
X133.0Y-83.46
X133.0Y-86.0
M30
