%TF.GenerationSoftware,KiCad,Pcbnew,10.0.1*%
%TF.CreationDate,2026-05-04T10:14:32+01:00*%
%TF.ProjectId,ZX IF2 Cartridge,5a582049-4632-4204-9361-727472696467,1.0*%
%TF.SameCoordinates,Original*%
%TF.FileFunction,OtherDrawing,Comment*%
%FSLAX46Y46*%
G04 Gerber Fmt 4.6, Leading zero omitted, Abs format (unit mm)*
G04 Created by KiCad (PCBNEW 10.0.1) date 2026-05-04 10:14:32*
%MOMM*%
%LPD*%
G01*
G04 APERTURE LIST*
%ADD10C,0.150000*%
G04 APERTURE END LIST*
D10*
X148731904Y-132292819D02*
X148922380Y-132292819D01*
X148922380Y-132292819D02*
X149017618Y-132340438D01*
X149017618Y-132340438D02*
X149112856Y-132435676D01*
X149112856Y-132435676D02*
X149160475Y-132626152D01*
X149160475Y-132626152D02*
X149160475Y-132959485D01*
X149160475Y-132959485D02*
X149112856Y-133149961D01*
X149112856Y-133149961D02*
X149017618Y-133245200D01*
X149017618Y-133245200D02*
X148922380Y-133292819D01*
X148922380Y-133292819D02*
X148731904Y-133292819D01*
X148731904Y-133292819D02*
X148636666Y-133245200D01*
X148636666Y-133245200D02*
X148541428Y-133149961D01*
X148541428Y-133149961D02*
X148493809Y-132959485D01*
X148493809Y-132959485D02*
X148493809Y-132626152D01*
X148493809Y-132626152D02*
X148541428Y-132435676D01*
X148541428Y-132435676D02*
X148636666Y-132340438D01*
X148636666Y-132340438D02*
X148731904Y-132292819D01*
X149589047Y-133292819D02*
X149589047Y-132626152D01*
X149589047Y-132816628D02*
X149636666Y-132721390D01*
X149636666Y-132721390D02*
X149684285Y-132673771D01*
X149684285Y-132673771D02*
X149779523Y-132626152D01*
X149779523Y-132626152D02*
X149874761Y-132626152D01*
X150208095Y-133292819D02*
X150208095Y-132626152D01*
X150208095Y-132292819D02*
X150160476Y-132340438D01*
X150160476Y-132340438D02*
X150208095Y-132388057D01*
X150208095Y-132388057D02*
X150255714Y-132340438D01*
X150255714Y-132340438D02*
X150208095Y-132292819D01*
X150208095Y-132292819D02*
X150208095Y-132388057D01*
X151112856Y-132626152D02*
X151112856Y-133435676D01*
X151112856Y-133435676D02*
X151065237Y-133530914D01*
X151065237Y-133530914D02*
X151017618Y-133578533D01*
X151017618Y-133578533D02*
X150922380Y-133626152D01*
X150922380Y-133626152D02*
X150779523Y-133626152D01*
X150779523Y-133626152D02*
X150684285Y-133578533D01*
X151112856Y-133245200D02*
X151017618Y-133292819D01*
X151017618Y-133292819D02*
X150827142Y-133292819D01*
X150827142Y-133292819D02*
X150731904Y-133245200D01*
X150731904Y-133245200D02*
X150684285Y-133197580D01*
X150684285Y-133197580D02*
X150636666Y-133102342D01*
X150636666Y-133102342D02*
X150636666Y-132816628D01*
X150636666Y-132816628D02*
X150684285Y-132721390D01*
X150684285Y-132721390D02*
X150731904Y-132673771D01*
X150731904Y-132673771D02*
X150827142Y-132626152D01*
X150827142Y-132626152D02*
X151017618Y-132626152D01*
X151017618Y-132626152D02*
X151112856Y-132673771D01*
X151589047Y-133292819D02*
X151589047Y-132626152D01*
X151589047Y-132292819D02*
X151541428Y-132340438D01*
X151541428Y-132340438D02*
X151589047Y-132388057D01*
X151589047Y-132388057D02*
X151636666Y-132340438D01*
X151636666Y-132340438D02*
X151589047Y-132292819D01*
X151589047Y-132292819D02*
X151589047Y-132388057D01*
X152065237Y-132626152D02*
X152065237Y-133292819D01*
X152065237Y-132721390D02*
X152112856Y-132673771D01*
X152112856Y-132673771D02*
X152208094Y-132626152D01*
X152208094Y-132626152D02*
X152350951Y-132626152D01*
X152350951Y-132626152D02*
X152446189Y-132673771D01*
X152446189Y-132673771D02*
X152493808Y-132769009D01*
X152493808Y-132769009D02*
X152493808Y-133292819D01*
X153398570Y-133292819D02*
X153398570Y-132769009D01*
X153398570Y-132769009D02*
X153350951Y-132673771D01*
X153350951Y-132673771D02*
X153255713Y-132626152D01*
X153255713Y-132626152D02*
X153065237Y-132626152D01*
X153065237Y-132626152D02*
X152969999Y-132673771D01*
X153398570Y-133245200D02*
X153303332Y-133292819D01*
X153303332Y-133292819D02*
X153065237Y-133292819D01*
X153065237Y-133292819D02*
X152969999Y-133245200D01*
X152969999Y-133245200D02*
X152922380Y-133149961D01*
X152922380Y-133149961D02*
X152922380Y-133054723D01*
X152922380Y-133054723D02*
X152969999Y-132959485D01*
X152969999Y-132959485D02*
X153065237Y-132911866D01*
X153065237Y-132911866D02*
X153303332Y-132911866D01*
X153303332Y-132911866D02*
X153398570Y-132864247D01*
X154017618Y-133292819D02*
X153922380Y-133245200D01*
X153922380Y-133245200D02*
X153874761Y-133149961D01*
X153874761Y-133149961D02*
X153874761Y-132292819D01*
X155589047Y-133245200D02*
X155493809Y-133292819D01*
X155493809Y-133292819D02*
X155303333Y-133292819D01*
X155303333Y-133292819D02*
X155208095Y-133245200D01*
X155208095Y-133245200D02*
X155160476Y-133197580D01*
X155160476Y-133197580D02*
X155112857Y-133102342D01*
X155112857Y-133102342D02*
X155112857Y-132816628D01*
X155112857Y-132816628D02*
X155160476Y-132721390D01*
X155160476Y-132721390D02*
X155208095Y-132673771D01*
X155208095Y-132673771D02*
X155303333Y-132626152D01*
X155303333Y-132626152D02*
X155493809Y-132626152D01*
X155493809Y-132626152D02*
X155589047Y-132673771D01*
X156446190Y-133292819D02*
X156446190Y-132769009D01*
X156446190Y-132769009D02*
X156398571Y-132673771D01*
X156398571Y-132673771D02*
X156303333Y-132626152D01*
X156303333Y-132626152D02*
X156112857Y-132626152D01*
X156112857Y-132626152D02*
X156017619Y-132673771D01*
X156446190Y-133245200D02*
X156350952Y-133292819D01*
X156350952Y-133292819D02*
X156112857Y-133292819D01*
X156112857Y-133292819D02*
X156017619Y-133245200D01*
X156017619Y-133245200D02*
X155970000Y-133149961D01*
X155970000Y-133149961D02*
X155970000Y-133054723D01*
X155970000Y-133054723D02*
X156017619Y-132959485D01*
X156017619Y-132959485D02*
X156112857Y-132911866D01*
X156112857Y-132911866D02*
X156350952Y-132911866D01*
X156350952Y-132911866D02*
X156446190Y-132864247D01*
X156922381Y-133292819D02*
X156922381Y-132626152D01*
X156922381Y-132816628D02*
X156970000Y-132721390D01*
X156970000Y-132721390D02*
X157017619Y-132673771D01*
X157017619Y-132673771D02*
X157112857Y-132626152D01*
X157112857Y-132626152D02*
X157208095Y-132626152D01*
X157398572Y-132626152D02*
X157779524Y-132626152D01*
X157541429Y-132292819D02*
X157541429Y-133149961D01*
X157541429Y-133149961D02*
X157589048Y-133245200D01*
X157589048Y-133245200D02*
X157684286Y-133292819D01*
X157684286Y-133292819D02*
X157779524Y-133292819D01*
X158112858Y-133292819D02*
X158112858Y-132626152D01*
X158112858Y-132816628D02*
X158160477Y-132721390D01*
X158160477Y-132721390D02*
X158208096Y-132673771D01*
X158208096Y-132673771D02*
X158303334Y-132626152D01*
X158303334Y-132626152D02*
X158398572Y-132626152D01*
X158731906Y-133292819D02*
X158731906Y-132626152D01*
X158731906Y-132292819D02*
X158684287Y-132340438D01*
X158684287Y-132340438D02*
X158731906Y-132388057D01*
X158731906Y-132388057D02*
X158779525Y-132340438D01*
X158779525Y-132340438D02*
X158731906Y-132292819D01*
X158731906Y-132292819D02*
X158731906Y-132388057D01*
X159636667Y-133292819D02*
X159636667Y-132292819D01*
X159636667Y-133245200D02*
X159541429Y-133292819D01*
X159541429Y-133292819D02*
X159350953Y-133292819D01*
X159350953Y-133292819D02*
X159255715Y-133245200D01*
X159255715Y-133245200D02*
X159208096Y-133197580D01*
X159208096Y-133197580D02*
X159160477Y-133102342D01*
X159160477Y-133102342D02*
X159160477Y-132816628D01*
X159160477Y-132816628D02*
X159208096Y-132721390D01*
X159208096Y-132721390D02*
X159255715Y-132673771D01*
X159255715Y-132673771D02*
X159350953Y-132626152D01*
X159350953Y-132626152D02*
X159541429Y-132626152D01*
X159541429Y-132626152D02*
X159636667Y-132673771D01*
X160541429Y-132626152D02*
X160541429Y-133435676D01*
X160541429Y-133435676D02*
X160493810Y-133530914D01*
X160493810Y-133530914D02*
X160446191Y-133578533D01*
X160446191Y-133578533D02*
X160350953Y-133626152D01*
X160350953Y-133626152D02*
X160208096Y-133626152D01*
X160208096Y-133626152D02*
X160112858Y-133578533D01*
X160541429Y-133245200D02*
X160446191Y-133292819D01*
X160446191Y-133292819D02*
X160255715Y-133292819D01*
X160255715Y-133292819D02*
X160160477Y-133245200D01*
X160160477Y-133245200D02*
X160112858Y-133197580D01*
X160112858Y-133197580D02*
X160065239Y-133102342D01*
X160065239Y-133102342D02*
X160065239Y-132816628D01*
X160065239Y-132816628D02*
X160112858Y-132721390D01*
X160112858Y-132721390D02*
X160160477Y-132673771D01*
X160160477Y-132673771D02*
X160255715Y-132626152D01*
X160255715Y-132626152D02*
X160446191Y-132626152D01*
X160446191Y-132626152D02*
X160541429Y-132673771D01*
X161398572Y-133245200D02*
X161303334Y-133292819D01*
X161303334Y-133292819D02*
X161112858Y-133292819D01*
X161112858Y-133292819D02*
X161017620Y-133245200D01*
X161017620Y-133245200D02*
X160970001Y-133149961D01*
X160970001Y-133149961D02*
X160970001Y-132769009D01*
X160970001Y-132769009D02*
X161017620Y-132673771D01*
X161017620Y-132673771D02*
X161112858Y-132626152D01*
X161112858Y-132626152D02*
X161303334Y-132626152D01*
X161303334Y-132626152D02*
X161398572Y-132673771D01*
X161398572Y-132673771D02*
X161446191Y-132769009D01*
X161446191Y-132769009D02*
X161446191Y-132864247D01*
X161446191Y-132864247D02*
X160970001Y-132959485D01*
M02*
