%TF.GenerationSoftware,KiCad,Pcbnew,10.0.1*%
%TF.CreationDate,2026-05-04T10:14:32+01:00*%
%TF.ProjectId,ZX IF2 Cartridge,5a582049-4632-4204-9361-727472696467,1.0*%
%TF.SameCoordinates,Original*%
%TF.FileFunction,Legend,Bot*%
%TF.FilePolarity,Positive*%
%FSLAX46Y46*%
G04 Gerber Fmt 4.6, Leading zero omitted, Abs format (unit mm)*
G04 Created by KiCad (PCBNEW 10.0.1) date 2026-05-04 10:14:32*
%MOMM*%
%LPD*%
G01*
G04 APERTURE LIST*
%ADD10C,0.150000*%
%ADD11C,0.508000*%
G04 APERTURE END LIST*
D10*
X136324761Y-119561009D02*
X136181904Y-119608628D01*
X136181904Y-119608628D02*
X136134285Y-119656247D01*
X136134285Y-119656247D02*
X136086666Y-119751485D01*
X136086666Y-119751485D02*
X136086666Y-119894342D01*
X136086666Y-119894342D02*
X136134285Y-119989580D01*
X136134285Y-119989580D02*
X136181904Y-120037200D01*
X136181904Y-120037200D02*
X136277142Y-120084819D01*
X136277142Y-120084819D02*
X136658094Y-120084819D01*
X136658094Y-120084819D02*
X136658094Y-119084819D01*
X136658094Y-119084819D02*
X136324761Y-119084819D01*
X136324761Y-119084819D02*
X136229523Y-119132438D01*
X136229523Y-119132438D02*
X136181904Y-119180057D01*
X136181904Y-119180057D02*
X136134285Y-119275295D01*
X136134285Y-119275295D02*
X136134285Y-119370533D01*
X136134285Y-119370533D02*
X136181904Y-119465771D01*
X136181904Y-119465771D02*
X136229523Y-119513390D01*
X136229523Y-119513390D02*
X136324761Y-119561009D01*
X136324761Y-119561009D02*
X136658094Y-119561009D01*
X135134285Y-120084819D02*
X135705713Y-120084819D01*
X135419999Y-120084819D02*
X135419999Y-119084819D01*
X135419999Y-119084819D02*
X135515237Y-119227676D01*
X135515237Y-119227676D02*
X135610475Y-119322914D01*
X135610475Y-119322914D02*
X135705713Y-119370533D01*
X172360952Y-119561009D02*
X172218095Y-119608628D01*
X172218095Y-119608628D02*
X172170476Y-119656247D01*
X172170476Y-119656247D02*
X172122857Y-119751485D01*
X172122857Y-119751485D02*
X172122857Y-119894342D01*
X172122857Y-119894342D02*
X172170476Y-119989580D01*
X172170476Y-119989580D02*
X172218095Y-120037200D01*
X172218095Y-120037200D02*
X172313333Y-120084819D01*
X172313333Y-120084819D02*
X172694285Y-120084819D01*
X172694285Y-120084819D02*
X172694285Y-119084819D01*
X172694285Y-119084819D02*
X172360952Y-119084819D01*
X172360952Y-119084819D02*
X172265714Y-119132438D01*
X172265714Y-119132438D02*
X172218095Y-119180057D01*
X172218095Y-119180057D02*
X172170476Y-119275295D01*
X172170476Y-119275295D02*
X172170476Y-119370533D01*
X172170476Y-119370533D02*
X172218095Y-119465771D01*
X172218095Y-119465771D02*
X172265714Y-119513390D01*
X172265714Y-119513390D02*
X172360952Y-119561009D01*
X172360952Y-119561009D02*
X172694285Y-119561009D01*
X171170476Y-120084819D02*
X171741904Y-120084819D01*
X171456190Y-120084819D02*
X171456190Y-119084819D01*
X171456190Y-119084819D02*
X171551428Y-119227676D01*
X171551428Y-119227676D02*
X171646666Y-119322914D01*
X171646666Y-119322914D02*
X171741904Y-119370533D01*
X170265714Y-119084819D02*
X170741904Y-119084819D01*
X170741904Y-119084819D02*
X170789523Y-119561009D01*
X170789523Y-119561009D02*
X170741904Y-119513390D01*
X170741904Y-119513390D02*
X170646666Y-119465771D01*
X170646666Y-119465771D02*
X170408571Y-119465771D01*
X170408571Y-119465771D02*
X170313333Y-119513390D01*
X170313333Y-119513390D02*
X170265714Y-119561009D01*
X170265714Y-119561009D02*
X170218095Y-119656247D01*
X170218095Y-119656247D02*
X170218095Y-119894342D01*
X170218095Y-119894342D02*
X170265714Y-119989580D01*
X170265714Y-119989580D02*
X170313333Y-120037200D01*
X170313333Y-120037200D02*
X170408571Y-120084819D01*
X170408571Y-120084819D02*
X170646666Y-120084819D01*
X170646666Y-120084819D02*
X170741904Y-120037200D01*
X170741904Y-120037200D02*
X170789523Y-119989580D01*
%TO.C,J1*%
X128478000Y-120900000D02*
X168360000Y-120900000D01*
X128478000Y-128520000D02*
X128478000Y-120900000D01*
X155340000Y-128520000D02*
X155340000Y-120900000D01*
X157135000Y-128520000D02*
X157135000Y-120900000D01*
X168360000Y-120900000D02*
X168360000Y-128520000D01*
X168360000Y-128520000D02*
X128478000Y-128520000D01*
%TO.C,SW1*%
D11*
X125761000Y-79904000D02*
G75*
G02*
X124999000Y-79904000I-381000J0D01*
G01*
X124999000Y-79904000D02*
G75*
G02*
X125761000Y-79904000I381000J0D01*
G01*
%TD*%
M02*
