%TF.GenerationSoftware,KiCad,Pcbnew,10.0.1*%
%TF.CreationDate,2026-05-04T10:14:32+01:00*%
%TF.ProjectId,ZX IF2 Cartridge,5a582049-4632-4204-9361-727472696467,1.0*%
%TF.SameCoordinates,Original*%
%TF.FileFunction,AssemblyDrawing,Top*%
%FSLAX46Y46*%
G04 Gerber Fmt 4.6, Leading zero omitted, Abs format (unit mm)*
G04 Created by KiCad (PCBNEW 10.0.1) date 2026-05-04 10:14:32*
%MOMM*%
%LPD*%
G01*
G04 APERTURE LIST*
%ADD10C,0.150000*%
%ADD11C,0.108000*%
%ADD12C,0.100000*%
%ADD13C,0.025400*%
%ADD14C,0.508000*%
%ADD15C,0.000000*%
G04 APERTURE END LIST*
D10*
X142990952Y-119084819D02*
X143657618Y-119084819D01*
X143657618Y-119084819D02*
X142990952Y-120084819D01*
X142990952Y-120084819D02*
X143657618Y-120084819D01*
X143943333Y-119084819D02*
X144609999Y-120084819D01*
X144609999Y-119084819D02*
X143943333Y-120084819D01*
X146324285Y-119989580D02*
X146276666Y-120037200D01*
X146276666Y-120037200D02*
X146133809Y-120084819D01*
X146133809Y-120084819D02*
X146038571Y-120084819D01*
X146038571Y-120084819D02*
X145895714Y-120037200D01*
X145895714Y-120037200D02*
X145800476Y-119941961D01*
X145800476Y-119941961D02*
X145752857Y-119846723D01*
X145752857Y-119846723D02*
X145705238Y-119656247D01*
X145705238Y-119656247D02*
X145705238Y-119513390D01*
X145705238Y-119513390D02*
X145752857Y-119322914D01*
X145752857Y-119322914D02*
X145800476Y-119227676D01*
X145800476Y-119227676D02*
X145895714Y-119132438D01*
X145895714Y-119132438D02*
X146038571Y-119084819D01*
X146038571Y-119084819D02*
X146133809Y-119084819D01*
X146133809Y-119084819D02*
X146276666Y-119132438D01*
X146276666Y-119132438D02*
X146324285Y-119180057D01*
X147181428Y-120084819D02*
X147181428Y-119561009D01*
X147181428Y-119561009D02*
X147133809Y-119465771D01*
X147133809Y-119465771D02*
X147038571Y-119418152D01*
X147038571Y-119418152D02*
X146848095Y-119418152D01*
X146848095Y-119418152D02*
X146752857Y-119465771D01*
X147181428Y-120037200D02*
X147086190Y-120084819D01*
X147086190Y-120084819D02*
X146848095Y-120084819D01*
X146848095Y-120084819D02*
X146752857Y-120037200D01*
X146752857Y-120037200D02*
X146705238Y-119941961D01*
X146705238Y-119941961D02*
X146705238Y-119846723D01*
X146705238Y-119846723D02*
X146752857Y-119751485D01*
X146752857Y-119751485D02*
X146848095Y-119703866D01*
X146848095Y-119703866D02*
X147086190Y-119703866D01*
X147086190Y-119703866D02*
X147181428Y-119656247D01*
X147657619Y-120084819D02*
X147657619Y-119418152D01*
X147657619Y-119608628D02*
X147705238Y-119513390D01*
X147705238Y-119513390D02*
X147752857Y-119465771D01*
X147752857Y-119465771D02*
X147848095Y-119418152D01*
X147848095Y-119418152D02*
X147943333Y-119418152D01*
X148133810Y-119418152D02*
X148514762Y-119418152D01*
X148276667Y-119084819D02*
X148276667Y-119941961D01*
X148276667Y-119941961D02*
X148324286Y-120037200D01*
X148324286Y-120037200D02*
X148419524Y-120084819D01*
X148419524Y-120084819D02*
X148514762Y-120084819D01*
X148848096Y-120084819D02*
X148848096Y-119418152D01*
X148848096Y-119608628D02*
X148895715Y-119513390D01*
X148895715Y-119513390D02*
X148943334Y-119465771D01*
X148943334Y-119465771D02*
X149038572Y-119418152D01*
X149038572Y-119418152D02*
X149133810Y-119418152D01*
X149467144Y-120084819D02*
X149467144Y-119418152D01*
X149467144Y-119084819D02*
X149419525Y-119132438D01*
X149419525Y-119132438D02*
X149467144Y-119180057D01*
X149467144Y-119180057D02*
X149514763Y-119132438D01*
X149514763Y-119132438D02*
X149467144Y-119084819D01*
X149467144Y-119084819D02*
X149467144Y-119180057D01*
X150371905Y-120084819D02*
X150371905Y-119084819D01*
X150371905Y-120037200D02*
X150276667Y-120084819D01*
X150276667Y-120084819D02*
X150086191Y-120084819D01*
X150086191Y-120084819D02*
X149990953Y-120037200D01*
X149990953Y-120037200D02*
X149943334Y-119989580D01*
X149943334Y-119989580D02*
X149895715Y-119894342D01*
X149895715Y-119894342D02*
X149895715Y-119608628D01*
X149895715Y-119608628D02*
X149943334Y-119513390D01*
X149943334Y-119513390D02*
X149990953Y-119465771D01*
X149990953Y-119465771D02*
X150086191Y-119418152D01*
X150086191Y-119418152D02*
X150276667Y-119418152D01*
X150276667Y-119418152D02*
X150371905Y-119465771D01*
X151276667Y-119418152D02*
X151276667Y-120227676D01*
X151276667Y-120227676D02*
X151229048Y-120322914D01*
X151229048Y-120322914D02*
X151181429Y-120370533D01*
X151181429Y-120370533D02*
X151086191Y-120418152D01*
X151086191Y-120418152D02*
X150943334Y-120418152D01*
X150943334Y-120418152D02*
X150848096Y-120370533D01*
X151276667Y-120037200D02*
X151181429Y-120084819D01*
X151181429Y-120084819D02*
X150990953Y-120084819D01*
X150990953Y-120084819D02*
X150895715Y-120037200D01*
X150895715Y-120037200D02*
X150848096Y-119989580D01*
X150848096Y-119989580D02*
X150800477Y-119894342D01*
X150800477Y-119894342D02*
X150800477Y-119608628D01*
X150800477Y-119608628D02*
X150848096Y-119513390D01*
X150848096Y-119513390D02*
X150895715Y-119465771D01*
X150895715Y-119465771D02*
X150990953Y-119418152D01*
X150990953Y-119418152D02*
X151181429Y-119418152D01*
X151181429Y-119418152D02*
X151276667Y-119465771D01*
X152133810Y-120037200D02*
X152038572Y-120084819D01*
X152038572Y-120084819D02*
X151848096Y-120084819D01*
X151848096Y-120084819D02*
X151752858Y-120037200D01*
X151752858Y-120037200D02*
X151705239Y-119941961D01*
X151705239Y-119941961D02*
X151705239Y-119561009D01*
X151705239Y-119561009D02*
X151752858Y-119465771D01*
X151752858Y-119465771D02*
X151848096Y-119418152D01*
X151848096Y-119418152D02*
X152038572Y-119418152D01*
X152038572Y-119418152D02*
X152133810Y-119465771D01*
X152133810Y-119465771D02*
X152181429Y-119561009D01*
X152181429Y-119561009D02*
X152181429Y-119656247D01*
X152181429Y-119656247D02*
X151705239Y-119751485D01*
X165007143Y-81824819D02*
X165673809Y-81824819D01*
X165673809Y-81824819D02*
X165245238Y-82824819D01*
X166483333Y-82158152D02*
X166483333Y-82824819D01*
X166245238Y-81777200D02*
X166007143Y-82491485D01*
X166007143Y-82491485D02*
X166626190Y-82491485D01*
X167483333Y-82824819D02*
X167007143Y-82824819D01*
X167007143Y-82824819D02*
X167007143Y-81824819D01*
X167769048Y-82777200D02*
X167911905Y-82824819D01*
X167911905Y-82824819D02*
X168150000Y-82824819D01*
X168150000Y-82824819D02*
X168245238Y-82777200D01*
X168245238Y-82777200D02*
X168292857Y-82729580D01*
X168292857Y-82729580D02*
X168340476Y-82634342D01*
X168340476Y-82634342D02*
X168340476Y-82539104D01*
X168340476Y-82539104D02*
X168292857Y-82443866D01*
X168292857Y-82443866D02*
X168245238Y-82396247D01*
X168245238Y-82396247D02*
X168150000Y-82348628D01*
X168150000Y-82348628D02*
X167959524Y-82301009D01*
X167959524Y-82301009D02*
X167864286Y-82253390D01*
X167864286Y-82253390D02*
X167816667Y-82205771D01*
X167816667Y-82205771D02*
X167769048Y-82110533D01*
X167769048Y-82110533D02*
X167769048Y-82015295D01*
X167769048Y-82015295D02*
X167816667Y-81920057D01*
X167816667Y-81920057D02*
X167864286Y-81872438D01*
X167864286Y-81872438D02*
X167959524Y-81824819D01*
X167959524Y-81824819D02*
X168197619Y-81824819D01*
X168197619Y-81824819D02*
X168340476Y-81872438D01*
X168673810Y-81824819D02*
X169292857Y-81824819D01*
X169292857Y-81824819D02*
X168959524Y-82205771D01*
X168959524Y-82205771D02*
X169102381Y-82205771D01*
X169102381Y-82205771D02*
X169197619Y-82253390D01*
X169197619Y-82253390D02*
X169245238Y-82301009D01*
X169245238Y-82301009D02*
X169292857Y-82396247D01*
X169292857Y-82396247D02*
X169292857Y-82634342D01*
X169292857Y-82634342D02*
X169245238Y-82729580D01*
X169245238Y-82729580D02*
X169197619Y-82777200D01*
X169197619Y-82777200D02*
X169102381Y-82824819D01*
X169102381Y-82824819D02*
X168816667Y-82824819D01*
X168816667Y-82824819D02*
X168721429Y-82777200D01*
X168721429Y-82777200D02*
X168673810Y-82729580D01*
X169673810Y-81920057D02*
X169721429Y-81872438D01*
X169721429Y-81872438D02*
X169816667Y-81824819D01*
X169816667Y-81824819D02*
X170054762Y-81824819D01*
X170054762Y-81824819D02*
X170150000Y-81872438D01*
X170150000Y-81872438D02*
X170197619Y-81920057D01*
X170197619Y-81920057D02*
X170245238Y-82015295D01*
X170245238Y-82015295D02*
X170245238Y-82110533D01*
X170245238Y-82110533D02*
X170197619Y-82253390D01*
X170197619Y-82253390D02*
X169626191Y-82824819D01*
X169626191Y-82824819D02*
X170245238Y-82824819D01*
X167104819Y-93081904D02*
X167914342Y-93081904D01*
X167914342Y-93081904D02*
X168009580Y-93034285D01*
X168009580Y-93034285D02*
X168057200Y-92986666D01*
X168057200Y-92986666D02*
X168104819Y-92891428D01*
X168104819Y-92891428D02*
X168104819Y-92700952D01*
X168104819Y-92700952D02*
X168057200Y-92605714D01*
X168057200Y-92605714D02*
X168009580Y-92558095D01*
X168009580Y-92558095D02*
X167914342Y-92510476D01*
X167914342Y-92510476D02*
X167104819Y-92510476D01*
X167200057Y-92081904D02*
X167152438Y-92034285D01*
X167152438Y-92034285D02*
X167104819Y-91939047D01*
X167104819Y-91939047D02*
X167104819Y-91700952D01*
X167104819Y-91700952D02*
X167152438Y-91605714D01*
X167152438Y-91605714D02*
X167200057Y-91558095D01*
X167200057Y-91558095D02*
X167295295Y-91510476D01*
X167295295Y-91510476D02*
X167390533Y-91510476D01*
X167390533Y-91510476D02*
X167533390Y-91558095D01*
X167533390Y-91558095D02*
X168104819Y-92129523D01*
X168104819Y-92129523D02*
X168104819Y-91510476D01*
X137749523Y-83854819D02*
X137178095Y-83854819D01*
X137463809Y-83854819D02*
X137463809Y-82854819D01*
X137463809Y-82854819D02*
X137368571Y-82997676D01*
X137368571Y-82997676D02*
X137273333Y-83092914D01*
X137273333Y-83092914D02*
X137178095Y-83140533D01*
X138368571Y-82854819D02*
X138463809Y-82854819D01*
X138463809Y-82854819D02*
X138559047Y-82902438D01*
X138559047Y-82902438D02*
X138606666Y-82950057D01*
X138606666Y-82950057D02*
X138654285Y-83045295D01*
X138654285Y-83045295D02*
X138701904Y-83235771D01*
X138701904Y-83235771D02*
X138701904Y-83473866D01*
X138701904Y-83473866D02*
X138654285Y-83664342D01*
X138654285Y-83664342D02*
X138606666Y-83759580D01*
X138606666Y-83759580D02*
X138559047Y-83807200D01*
X138559047Y-83807200D02*
X138463809Y-83854819D01*
X138463809Y-83854819D02*
X138368571Y-83854819D01*
X138368571Y-83854819D02*
X138273333Y-83807200D01*
X138273333Y-83807200D02*
X138225714Y-83759580D01*
X138225714Y-83759580D02*
X138178095Y-83664342D01*
X138178095Y-83664342D02*
X138130476Y-83473866D01*
X138130476Y-83473866D02*
X138130476Y-83235771D01*
X138130476Y-83235771D02*
X138178095Y-83045295D01*
X138178095Y-83045295D02*
X138225714Y-82950057D01*
X138225714Y-82950057D02*
X138273333Y-82902438D01*
X138273333Y-82902438D02*
X138368571Y-82854819D01*
X139130476Y-83854819D02*
X139130476Y-82854819D01*
X139701904Y-83854819D02*
X139273333Y-83283390D01*
X139701904Y-82854819D02*
X139130476Y-83426247D01*
D11*
X138320000Y-83727469D02*
X138080000Y-83384612D01*
X137908571Y-83727469D02*
X137908571Y-83007469D01*
X137908571Y-83007469D02*
X138182857Y-83007469D01*
X138182857Y-83007469D02*
X138251428Y-83041755D01*
X138251428Y-83041755D02*
X138285714Y-83076041D01*
X138285714Y-83076041D02*
X138320000Y-83144612D01*
X138320000Y-83144612D02*
X138320000Y-83247469D01*
X138320000Y-83247469D02*
X138285714Y-83316041D01*
X138285714Y-83316041D02*
X138251428Y-83350326D01*
X138251428Y-83350326D02*
X138182857Y-83384612D01*
X138182857Y-83384612D02*
X137908571Y-83384612D01*
X139005714Y-83727469D02*
X138594285Y-83727469D01*
X138800000Y-83727469D02*
X138800000Y-83007469D01*
X138800000Y-83007469D02*
X138731428Y-83110326D01*
X138731428Y-83110326D02*
X138662857Y-83178898D01*
X138662857Y-83178898D02*
X138594285Y-83213184D01*
D10*
X124100057Y-99430475D02*
X124052438Y-99382856D01*
X124052438Y-99382856D02*
X124004819Y-99287618D01*
X124004819Y-99287618D02*
X124004819Y-99049523D01*
X124004819Y-99049523D02*
X124052438Y-98954285D01*
X124052438Y-98954285D02*
X124100057Y-98906666D01*
X124100057Y-98906666D02*
X124195295Y-98859047D01*
X124195295Y-98859047D02*
X124290533Y-98859047D01*
X124290533Y-98859047D02*
X124433390Y-98906666D01*
X124433390Y-98906666D02*
X125004819Y-99478094D01*
X125004819Y-99478094D02*
X125004819Y-98859047D01*
X124004819Y-98525713D02*
X124004819Y-97859047D01*
X124004819Y-97859047D02*
X125004819Y-98287618D01*
X124004819Y-97001904D02*
X124004819Y-97478094D01*
X124004819Y-97478094D02*
X124481009Y-97525713D01*
X124481009Y-97525713D02*
X124433390Y-97478094D01*
X124433390Y-97478094D02*
X124385771Y-97382856D01*
X124385771Y-97382856D02*
X124385771Y-97144761D01*
X124385771Y-97144761D02*
X124433390Y-97049523D01*
X124433390Y-97049523D02*
X124481009Y-97001904D01*
X124481009Y-97001904D02*
X124576247Y-96954285D01*
X124576247Y-96954285D02*
X124814342Y-96954285D01*
X124814342Y-96954285D02*
X124909580Y-97001904D01*
X124909580Y-97001904D02*
X124957200Y-97049523D01*
X124957200Y-97049523D02*
X125004819Y-97144761D01*
X125004819Y-97144761D02*
X125004819Y-97382856D01*
X125004819Y-97382856D02*
X124957200Y-97478094D01*
X124957200Y-97478094D02*
X124909580Y-97525713D01*
X125004819Y-96001904D02*
X125004819Y-96573332D01*
X125004819Y-96287618D02*
X124004819Y-96287618D01*
X124004819Y-96287618D02*
X124147676Y-96382856D01*
X124147676Y-96382856D02*
X124242914Y-96478094D01*
X124242914Y-96478094D02*
X124290533Y-96573332D01*
X124100057Y-95620951D02*
X124052438Y-95573332D01*
X124052438Y-95573332D02*
X124004819Y-95478094D01*
X124004819Y-95478094D02*
X124004819Y-95239999D01*
X124004819Y-95239999D02*
X124052438Y-95144761D01*
X124052438Y-95144761D02*
X124100057Y-95097142D01*
X124100057Y-95097142D02*
X124195295Y-95049523D01*
X124195295Y-95049523D02*
X124290533Y-95049523D01*
X124290533Y-95049523D02*
X124433390Y-95097142D01*
X124433390Y-95097142D02*
X125004819Y-95668570D01*
X125004819Y-95668570D02*
X125004819Y-95049523D01*
X142628095Y-96694819D02*
X142628095Y-97504342D01*
X142628095Y-97504342D02*
X142675714Y-97599580D01*
X142675714Y-97599580D02*
X142723333Y-97647200D01*
X142723333Y-97647200D02*
X142818571Y-97694819D01*
X142818571Y-97694819D02*
X143009047Y-97694819D01*
X143009047Y-97694819D02*
X143104285Y-97647200D01*
X143104285Y-97647200D02*
X143151904Y-97599580D01*
X143151904Y-97599580D02*
X143199523Y-97504342D01*
X143199523Y-97504342D02*
X143199523Y-96694819D01*
X144199523Y-97694819D02*
X143628095Y-97694819D01*
X143913809Y-97694819D02*
X143913809Y-96694819D01*
X143913809Y-96694819D02*
X143818571Y-96837676D01*
X143818571Y-96837676D02*
X143723333Y-96932914D01*
X143723333Y-96932914D02*
X143628095Y-96980533D01*
X152100952Y-87354819D02*
X151529524Y-87354819D01*
X151815238Y-87354819D02*
X151815238Y-86354819D01*
X151815238Y-86354819D02*
X151720000Y-86497676D01*
X151720000Y-86497676D02*
X151624762Y-86592914D01*
X151624762Y-86592914D02*
X151529524Y-86640533D01*
X152720000Y-86354819D02*
X152815238Y-86354819D01*
X152815238Y-86354819D02*
X152910476Y-86402438D01*
X152910476Y-86402438D02*
X152958095Y-86450057D01*
X152958095Y-86450057D02*
X153005714Y-86545295D01*
X153005714Y-86545295D02*
X153053333Y-86735771D01*
X153053333Y-86735771D02*
X153053333Y-86973866D01*
X153053333Y-86973866D02*
X153005714Y-87164342D01*
X153005714Y-87164342D02*
X152958095Y-87259580D01*
X152958095Y-87259580D02*
X152910476Y-87307200D01*
X152910476Y-87307200D02*
X152815238Y-87354819D01*
X152815238Y-87354819D02*
X152720000Y-87354819D01*
X152720000Y-87354819D02*
X152624762Y-87307200D01*
X152624762Y-87307200D02*
X152577143Y-87259580D01*
X152577143Y-87259580D02*
X152529524Y-87164342D01*
X152529524Y-87164342D02*
X152481905Y-86973866D01*
X152481905Y-86973866D02*
X152481905Y-86735771D01*
X152481905Y-86735771D02*
X152529524Y-86545295D01*
X152529524Y-86545295D02*
X152577143Y-86450057D01*
X152577143Y-86450057D02*
X152624762Y-86402438D01*
X152624762Y-86402438D02*
X152720000Y-86354819D01*
X153672381Y-86354819D02*
X153767619Y-86354819D01*
X153767619Y-86354819D02*
X153862857Y-86402438D01*
X153862857Y-86402438D02*
X153910476Y-86450057D01*
X153910476Y-86450057D02*
X153958095Y-86545295D01*
X153958095Y-86545295D02*
X154005714Y-86735771D01*
X154005714Y-86735771D02*
X154005714Y-86973866D01*
X154005714Y-86973866D02*
X153958095Y-87164342D01*
X153958095Y-87164342D02*
X153910476Y-87259580D01*
X153910476Y-87259580D02*
X153862857Y-87307200D01*
X153862857Y-87307200D02*
X153767619Y-87354819D01*
X153767619Y-87354819D02*
X153672381Y-87354819D01*
X153672381Y-87354819D02*
X153577143Y-87307200D01*
X153577143Y-87307200D02*
X153529524Y-87259580D01*
X153529524Y-87259580D02*
X153481905Y-87164342D01*
X153481905Y-87164342D02*
X153434286Y-86973866D01*
X153434286Y-86973866D02*
X153434286Y-86735771D01*
X153434286Y-86735771D02*
X153481905Y-86545295D01*
X153481905Y-86545295D02*
X153529524Y-86450057D01*
X153529524Y-86450057D02*
X153577143Y-86402438D01*
X153577143Y-86402438D02*
X153672381Y-86354819D01*
X154434286Y-86688152D02*
X154434286Y-87354819D01*
X154434286Y-86783390D02*
X154481905Y-86735771D01*
X154481905Y-86735771D02*
X154577143Y-86688152D01*
X154577143Y-86688152D02*
X154720000Y-86688152D01*
X154720000Y-86688152D02*
X154815238Y-86735771D01*
X154815238Y-86735771D02*
X154862857Y-86831009D01*
X154862857Y-86831009D02*
X154862857Y-87354819D01*
X153053333Y-84589580D02*
X153005714Y-84637200D01*
X153005714Y-84637200D02*
X152862857Y-84684819D01*
X152862857Y-84684819D02*
X152767619Y-84684819D01*
X152767619Y-84684819D02*
X152624762Y-84637200D01*
X152624762Y-84637200D02*
X152529524Y-84541961D01*
X152529524Y-84541961D02*
X152481905Y-84446723D01*
X152481905Y-84446723D02*
X152434286Y-84256247D01*
X152434286Y-84256247D02*
X152434286Y-84113390D01*
X152434286Y-84113390D02*
X152481905Y-83922914D01*
X152481905Y-83922914D02*
X152529524Y-83827676D01*
X152529524Y-83827676D02*
X152624762Y-83732438D01*
X152624762Y-83732438D02*
X152767619Y-83684819D01*
X152767619Y-83684819D02*
X152862857Y-83684819D01*
X152862857Y-83684819D02*
X153005714Y-83732438D01*
X153005714Y-83732438D02*
X153053333Y-83780057D01*
X154005714Y-84684819D02*
X153434286Y-84684819D01*
X153720000Y-84684819D02*
X153720000Y-83684819D01*
X153720000Y-83684819D02*
X153624762Y-83827676D01*
X153624762Y-83827676D02*
X153529524Y-83922914D01*
X153529524Y-83922914D02*
X153434286Y-83970533D01*
X137809523Y-86264819D02*
X137238095Y-86264819D01*
X137523809Y-86264819D02*
X137523809Y-85264819D01*
X137523809Y-85264819D02*
X137428571Y-85407676D01*
X137428571Y-85407676D02*
X137333333Y-85502914D01*
X137333333Y-85502914D02*
X137238095Y-85550533D01*
X138428571Y-85264819D02*
X138523809Y-85264819D01*
X138523809Y-85264819D02*
X138619047Y-85312438D01*
X138619047Y-85312438D02*
X138666666Y-85360057D01*
X138666666Y-85360057D02*
X138714285Y-85455295D01*
X138714285Y-85455295D02*
X138761904Y-85645771D01*
X138761904Y-85645771D02*
X138761904Y-85883866D01*
X138761904Y-85883866D02*
X138714285Y-86074342D01*
X138714285Y-86074342D02*
X138666666Y-86169580D01*
X138666666Y-86169580D02*
X138619047Y-86217200D01*
X138619047Y-86217200D02*
X138523809Y-86264819D01*
X138523809Y-86264819D02*
X138428571Y-86264819D01*
X138428571Y-86264819D02*
X138333333Y-86217200D01*
X138333333Y-86217200D02*
X138285714Y-86169580D01*
X138285714Y-86169580D02*
X138238095Y-86074342D01*
X138238095Y-86074342D02*
X138190476Y-85883866D01*
X138190476Y-85883866D02*
X138190476Y-85645771D01*
X138190476Y-85645771D02*
X138238095Y-85455295D01*
X138238095Y-85455295D02*
X138285714Y-85360057D01*
X138285714Y-85360057D02*
X138333333Y-85312438D01*
X138333333Y-85312438D02*
X138428571Y-85264819D01*
X139190476Y-86264819D02*
X139190476Y-85264819D01*
X139761904Y-86264819D02*
X139333333Y-85693390D01*
X139761904Y-85264819D02*
X139190476Y-85836247D01*
D11*
X138380000Y-86137469D02*
X138140000Y-85794612D01*
X137968571Y-86137469D02*
X137968571Y-85417469D01*
X137968571Y-85417469D02*
X138242857Y-85417469D01*
X138242857Y-85417469D02*
X138311428Y-85451755D01*
X138311428Y-85451755D02*
X138345714Y-85486041D01*
X138345714Y-85486041D02*
X138380000Y-85554612D01*
X138380000Y-85554612D02*
X138380000Y-85657469D01*
X138380000Y-85657469D02*
X138345714Y-85726041D01*
X138345714Y-85726041D02*
X138311428Y-85760326D01*
X138311428Y-85760326D02*
X138242857Y-85794612D01*
X138242857Y-85794612D02*
X137968571Y-85794612D01*
X138654285Y-85486041D02*
X138688571Y-85451755D01*
X138688571Y-85451755D02*
X138757143Y-85417469D01*
X138757143Y-85417469D02*
X138928571Y-85417469D01*
X138928571Y-85417469D02*
X138997143Y-85451755D01*
X138997143Y-85451755D02*
X139031428Y-85486041D01*
X139031428Y-85486041D02*
X139065714Y-85554612D01*
X139065714Y-85554612D02*
X139065714Y-85623184D01*
X139065714Y-85623184D02*
X139031428Y-85726041D01*
X139031428Y-85726041D02*
X138620000Y-86137469D01*
X138620000Y-86137469D02*
X139065714Y-86137469D01*
D10*
X125023333Y-84899104D02*
X125499523Y-84899104D01*
X124928095Y-85184819D02*
X125261428Y-84184819D01*
X125261428Y-84184819D02*
X125594761Y-85184819D01*
X126356666Y-84184819D02*
X126166190Y-84184819D01*
X126166190Y-84184819D02*
X126070952Y-84232438D01*
X126070952Y-84232438D02*
X126023333Y-84280057D01*
X126023333Y-84280057D02*
X125928095Y-84422914D01*
X125928095Y-84422914D02*
X125880476Y-84613390D01*
X125880476Y-84613390D02*
X125880476Y-84994342D01*
X125880476Y-84994342D02*
X125928095Y-85089580D01*
X125928095Y-85089580D02*
X125975714Y-85137200D01*
X125975714Y-85137200D02*
X126070952Y-85184819D01*
X126070952Y-85184819D02*
X126261428Y-85184819D01*
X126261428Y-85184819D02*
X126356666Y-85137200D01*
X126356666Y-85137200D02*
X126404285Y-85089580D01*
X126404285Y-85089580D02*
X126451904Y-84994342D01*
X126451904Y-84994342D02*
X126451904Y-84756247D01*
X126451904Y-84756247D02*
X126404285Y-84661009D01*
X126404285Y-84661009D02*
X126356666Y-84613390D01*
X126356666Y-84613390D02*
X126261428Y-84565771D01*
X126261428Y-84565771D02*
X126070952Y-84565771D01*
X126070952Y-84565771D02*
X125975714Y-84613390D01*
X125975714Y-84613390D02*
X125928095Y-84661009D01*
X125928095Y-84661009D02*
X125880476Y-84756247D01*
X127213809Y-84661009D02*
X126880476Y-84661009D01*
X126880476Y-85184819D02*
X126880476Y-84184819D01*
X126880476Y-84184819D02*
X127356666Y-84184819D01*
X128309047Y-85184819D02*
X127975714Y-84708628D01*
X127737619Y-85184819D02*
X127737619Y-84184819D01*
X127737619Y-84184819D02*
X128118571Y-84184819D01*
X128118571Y-84184819D02*
X128213809Y-84232438D01*
X128213809Y-84232438D02*
X128261428Y-84280057D01*
X128261428Y-84280057D02*
X128309047Y-84375295D01*
X128309047Y-84375295D02*
X128309047Y-84518152D01*
X128309047Y-84518152D02*
X128261428Y-84613390D01*
X128261428Y-84613390D02*
X128213809Y-84661009D01*
X128213809Y-84661009D02*
X128118571Y-84708628D01*
X128118571Y-84708628D02*
X127737619Y-84708628D01*
X128737619Y-84803866D02*
X129499524Y-84803866D01*
X129928095Y-84280057D02*
X129975714Y-84232438D01*
X129975714Y-84232438D02*
X130070952Y-84184819D01*
X130070952Y-84184819D02*
X130309047Y-84184819D01*
X130309047Y-84184819D02*
X130404285Y-84232438D01*
X130404285Y-84232438D02*
X130451904Y-84280057D01*
X130451904Y-84280057D02*
X130499523Y-84375295D01*
X130499523Y-84375295D02*
X130499523Y-84470533D01*
X130499523Y-84470533D02*
X130451904Y-84613390D01*
X130451904Y-84613390D02*
X129880476Y-85184819D01*
X129880476Y-85184819D02*
X130499523Y-85184819D01*
X131451904Y-85184819D02*
X130880476Y-85184819D01*
X131166190Y-85184819D02*
X131166190Y-84184819D01*
X131166190Y-84184819D02*
X131070952Y-84327676D01*
X131070952Y-84327676D02*
X130975714Y-84422914D01*
X130975714Y-84422914D02*
X130880476Y-84470533D01*
X132070952Y-84184819D02*
X132166190Y-84184819D01*
X132166190Y-84184819D02*
X132261428Y-84232438D01*
X132261428Y-84232438D02*
X132309047Y-84280057D01*
X132309047Y-84280057D02*
X132356666Y-84375295D01*
X132356666Y-84375295D02*
X132404285Y-84565771D01*
X132404285Y-84565771D02*
X132404285Y-84803866D01*
X132404285Y-84803866D02*
X132356666Y-84994342D01*
X132356666Y-84994342D02*
X132309047Y-85089580D01*
X132309047Y-85089580D02*
X132261428Y-85137200D01*
X132261428Y-85137200D02*
X132166190Y-85184819D01*
X132166190Y-85184819D02*
X132070952Y-85184819D01*
X132070952Y-85184819D02*
X131975714Y-85137200D01*
X131975714Y-85137200D02*
X131928095Y-85089580D01*
X131928095Y-85089580D02*
X131880476Y-84994342D01*
X131880476Y-84994342D02*
X131832857Y-84803866D01*
X131832857Y-84803866D02*
X131832857Y-84565771D01*
X131832857Y-84565771D02*
X131880476Y-84375295D01*
X131880476Y-84375295D02*
X131928095Y-84280057D01*
X131928095Y-84280057D02*
X131975714Y-84232438D01*
X131975714Y-84232438D02*
X132070952Y-84184819D01*
X133261428Y-84518152D02*
X133261428Y-85184819D01*
X133023333Y-84137200D02*
X132785238Y-84851485D01*
X132785238Y-84851485D02*
X133404285Y-84851485D01*
X127856667Y-85137200D02*
X127999524Y-85184819D01*
X127999524Y-85184819D02*
X128237619Y-85184819D01*
X128237619Y-85184819D02*
X128332857Y-85137200D01*
X128332857Y-85137200D02*
X128380476Y-85089580D01*
X128380476Y-85089580D02*
X128428095Y-84994342D01*
X128428095Y-84994342D02*
X128428095Y-84899104D01*
X128428095Y-84899104D02*
X128380476Y-84803866D01*
X128380476Y-84803866D02*
X128332857Y-84756247D01*
X128332857Y-84756247D02*
X128237619Y-84708628D01*
X128237619Y-84708628D02*
X128047143Y-84661009D01*
X128047143Y-84661009D02*
X127951905Y-84613390D01*
X127951905Y-84613390D02*
X127904286Y-84565771D01*
X127904286Y-84565771D02*
X127856667Y-84470533D01*
X127856667Y-84470533D02*
X127856667Y-84375295D01*
X127856667Y-84375295D02*
X127904286Y-84280057D01*
X127904286Y-84280057D02*
X127951905Y-84232438D01*
X127951905Y-84232438D02*
X128047143Y-84184819D01*
X128047143Y-84184819D02*
X128285238Y-84184819D01*
X128285238Y-84184819D02*
X128428095Y-84232438D01*
X128761429Y-84184819D02*
X128999524Y-85184819D01*
X128999524Y-85184819D02*
X129190000Y-84470533D01*
X129190000Y-84470533D02*
X129380476Y-85184819D01*
X129380476Y-85184819D02*
X129618572Y-84184819D01*
X130523333Y-85184819D02*
X129951905Y-85184819D01*
X130237619Y-85184819D02*
X130237619Y-84184819D01*
X130237619Y-84184819D02*
X130142381Y-84327676D01*
X130142381Y-84327676D02*
X130047143Y-84422914D01*
X130047143Y-84422914D02*
X129951905Y-84470533D01*
%TO.C,U2*%
D12*
X164475000Y-83430000D02*
X170825000Y-83430000D01*
X164475000Y-101210000D02*
X164475000Y-83430000D01*
X169825000Y-101210000D02*
X164475000Y-101210000D01*
X170825000Y-83430000D02*
X170825000Y-100210000D01*
X170825000Y-100210000D02*
X169825000Y-101210000D01*
%TO.C,R1*%
X135900000Y-83400000D02*
X136640000Y-83400000D01*
X140980000Y-83400000D02*
X140240000Y-83400000D01*
X136640000Y-82600000D02*
X140240000Y-82600000D01*
X140240000Y-84200000D01*
X136640000Y-84200000D01*
X136640000Y-82600000D01*
%TO.C,U1*%
X125610000Y-89875000D02*
X160170000Y-89875000D01*
X125610000Y-104605000D02*
X125610000Y-89875000D01*
X160170000Y-89875000D02*
X161170000Y-90875000D01*
X161170000Y-90875000D02*
X161170000Y-104605000D01*
X161170000Y-104605000D02*
X125610000Y-104605000D01*
%TO.C,C1*%
X149470000Y-84230000D02*
X150670000Y-84230000D01*
X156970000Y-84230000D02*
X155770000Y-84230000D01*
X150670000Y-82680000D02*
X155770000Y-82680000D01*
X155770000Y-85780000D01*
X150670000Y-85780000D01*
X150670000Y-82680000D01*
%TO.C,R2*%
X135960000Y-85810000D02*
X136700000Y-85810000D01*
X141040000Y-85810000D02*
X140300000Y-85810000D01*
X136700000Y-85010000D02*
X140300000Y-85010000D01*
X140300000Y-86610000D01*
X136700000Y-86610000D01*
X136700000Y-85010000D01*
%TO.C,SW1*%
D13*
X124240000Y-81409966D02*
X124240000Y-88049966D01*
X124240000Y-88049966D02*
X134140000Y-88049966D01*
X134140000Y-81409966D02*
X124240000Y-81409966D01*
X134140000Y-88049966D02*
X134140000Y-81409966D01*
D14*
X125761000Y-81555000D02*
G75*
G02*
X124999000Y-81555000I-381000J0D01*
G01*
X124999000Y-81555000D02*
G75*
G02*
X125761000Y-81555000I381000J0D01*
G01*
D15*
G36*
X124239998Y-84109999D02*
G01*
X122540002Y-84109999D01*
X122540002Y-82810001D01*
X124239998Y-82810001D01*
X124239998Y-84109999D01*
G37*
G36*
X124239998Y-86649999D02*
G01*
X122540002Y-86649999D01*
X122540002Y-85350001D01*
X124239998Y-85350001D01*
X124239998Y-86649999D01*
G37*
%TD*%
M02*
